HIERARCHY
ROOT root
{
	OFFSET	0	13.1	24.9
	CHANNELS 6  Xposition Yposition Zposition Xrotation Yrotation Zrotation
	JOINT spine_1
	{
		OFFSET	0	9.99999	0
		CHANNELS 3  Xrotation Yrotation Zrotation
		JOINT spine_2
		{
			OFFSET	0	112	-10
			CHANNELS 3  Xrotation Yrotation Zrotation
			JOINT spine_3
			{
				OFFSET	0	206.5	19.3
				CHANNELS 3  Xrotation Yrotation Zrotation
				JOINT spine_4
				{
					OFFSET	0	110.4	14.6
					CHANNELS 3  Xrotation Yrotation Zrotation
					JOINT neck_1
					{
						OFFSET	0	71.8	-50.3
						CHANNELS 3  Xrotation Yrotation Zrotation
						JOINT neck_2
						{
							OFFSET	0	86.2	-25.8
							CHANNELS 3  Xrotation Yrotation Zrotation
							JOINT head_ee
							{
								OFFSET	0	179.8	-8.7
								CHANNELS 3  Xrotation Yrotation Zrotation
								End Site
								{
									OFFSET	1	0	0
								}
							}
						}
					}
					JOINT left_clavicle
					{
						OFFSET	-43.2	22.4	-70.8
						CHANNELS 3  Xrotation Yrotation Zrotation
						JOINT left_shoulder
						{
							OFFSET	-93.9	-5.79999	48.7
							CHANNELS 3  Xrotation Yrotation Zrotation
							JOINT left_elbow
							{
								OFFSET	-291.4	-30.8	15.2
								CHANNELS 3  Xrotation Yrotation Zrotation
								JOINT left_lowarm_twist
								{
									OFFSET	-110.7	-3.89999	13.6
									CHANNELS 3  Xrotation Yrotation Zrotation
									JOINT left_hand
									{
										OFFSET	-110.7	-3.89999	13.6
										CHANNELS 3  Xrotation Yrotation Zrotation
										JOINT left_ee
										{
											OFFSET	-80.8	-5.10001	12.1
											CHANNELS 3  Xrotation Yrotation Zrotation
											End Site
											{
												OFFSET	1	0	0
											}
										}
									}
								}
							}
						}
					}
					JOINT right_clavicle
					{
						OFFSET	43.2	22.4	-70.8
						CHANNELS 3  Xrotation Yrotation Zrotation
						JOINT right_shoulder
						{
							OFFSET	93.9	-5.79999	48.7
							CHANNELS 3  Xrotation Yrotation Zrotation
							JOINT right_elbow
							{
								OFFSET	291.4	-30.8	15.2
								CHANNELS 3  Xrotation Yrotation Zrotation
								JOINT right_lowarm_twist
								{
									OFFSET	110.7	-3.89999	13.6
									CHANNELS 3  Xrotation Yrotation Zrotation
									JOINT right_hand
									{
										OFFSET	110.7	-3.89999	13.6
										CHANNELS 3  Xrotation Yrotation Zrotation
										JOINT right_ee
										{
											OFFSET	80.8	-5.10001	12.1
											CHANNELS 3  Xrotation Yrotation Zrotation
											End Site
											{
												OFFSET	1	0	0
											}
										}
									}
								}
							}
						}
					}
				}
			}
		}
	}
	JOINT left_hip
	{
		OFFSET	-82.8	-127.5	0.300001
		CHANNELS 3  Xrotation Yrotation Zrotation
		JOINT left_knee
		{
			OFFSET	-28.2	-396.7	2.2
			CHANNELS 3  Xrotation Yrotation Zrotation
			JOINT left_ankle
			{
				OFFSET	-11.7	-411.3	35.4
				CHANNELS 3  Xrotation Yrotation Zrotation
				JOINT left_toes
				{
					OFFSET	0	-60	-88.6
					CHANNELS 3  Xrotation Yrotation Zrotation
					JOINT left_foot_ee
					{
						OFFSET	-22.5	-16.5	-42.2
						CHANNELS 3  Xrotation Yrotation Zrotation
						End Site
						{
							OFFSET	1	0	0
						}
					}
				}
			}
		}
	}
	JOINT right_hip
	{
		OFFSET	82.8	-127.5	0.300001
		CHANNELS 3  Xrotation Yrotation Zrotation
		JOINT right_knee
		{
			OFFSET	28.2	-396.7	2.2
			CHANNELS 3  Xrotation Yrotation Zrotation
			JOINT right_ankle
			{
				OFFSET	11.7	-411.3	35.4
				CHANNELS 3  Xrotation Yrotation Zrotation
				JOINT right_toes
				{
					OFFSET	0	-60	-88.6
					CHANNELS 3  Xrotation Yrotation Zrotation
					JOINT right_foot_ee
					{
						OFFSET	22.5	-16.5	-42.2
						CHANNELS 3  Xrotation Yrotation Zrotation
						End Site
						{
							OFFSET	1	0	0
						}
					}
				}
			}
		}
	}
}
MOTION
Frames: 6
Frame Time: 0.02
551.706 719.476 -1313.57 -176.684 -39.9133 -179.897 -0.672554 0.25678 1.82216 -0.670717 0.140331 1.8348 -0.664937 -0.269644 1.8203 -0.669561 0.021172 1.84003 1.37346 12.116 3.02758 1.66564 18.893 4.34352 -0.0 0.0 -0.0 -2.89063 16.3531 -2.61973 7.3941 -21.8958 76.0616 2.06554 -45.6517 0.869447 -7.7437 -0.336321 0.930328 2.76834 -5.7274 16.4673 -0.0 0.0 -0.0 10.128 15.2308 -19.9677 -9.76914 24.4739 -59.2253 0.858778 23.0453 -0.175077 1.82356 -0.0606723 0.224996 -0.127306 -10.9675 -3.72089 0.0 0.0 0.0 1.57659 11.5224 8.77087 -10.0618 0.281724 1.51648 42.6849 24.6537 -5.40628 -23.0358 0.0 0.0 -0.0 0.0 -0.0 12.7901 13.4133 6.43663 -11.2112 -0.296843 -1.6922 27.3847 -28.519 3.88624 -16.2416 0.0 0.0 0.0 0.0 0.0 
561.294 721.657 -1316.74 -176.774 -38.5679 -179.744 -0.618878 0.231835 1.91229 -0.616851 0.109704 1.92316 -0.611823 -0.317351 1.89997 -0.61686 -0.0133611 1.92624 1.01293 11.9256 -0.954166 1.44105 21.9156 0.00520802 -0.0 0.0 -0.0 -2.94368 14.7047 -3.02 7.06235 -25.532 74.5097 2.17003 -47.0632 0.94507 -7.72677 -0.335449 0.928347 3.01973 -6.08272 18.0891 -0.0 0.0 -0.0 9.57534 14.5808 -18.7704 -12.2951 29.9893 -58.278 0.917201 24.4345 -0.198599 2.12012 -0.0698606 0.261762 0.741163 -8.94453 -8.52043 0.0 0.0 0.0 1.59322 8.5609 9.15485 -10.9065 0.293178 1.64559 42.9171 24.014 -5.40564 -25.8619 0.0 0.0 -0.0 0.0 -0.0 11.7915 19.1798 7.64748 -11.2344 -0.297112 -1.69575 27.0741 -26.8591 3.80503 -16.1665 0.0 0.0 0.0 0.0 0.0 
572.617 721.068 -1312.11 -179.481 -41.487 178.366 -1.08674 0.150442 1.88192 -1.08477 0.0304076 1.88768 -1.08231 -0.402065 1.84463 -1.08705 -0.105749 1.88496 0.744792 10.2129 0.420229 0.995338 17.7757 1.41171 -0.0 0.0 -0.0 -2.95777 16.3494 -2.72646 10.1946 -23.3423 75.3562 2.5959 -52.121 1.26967 -7.70945 -0.334558 0.926318 2.65401 -4.82607 16.0492 -0.0 0.0 -0.0 9.82512 15.9241 -19.2616 -13.9518 27.9566 -58.0284 0.737437 20.0675 -0.130479 4.69651 -0.141638 0.58301 0.0818978 -11.0999 -5.11015 0.0 0.0 0.0 -4.91067 8.71813 11.0159 -4.93312 0.171446 0.737442 43.4383 25.296 -5.49619 -23.6827 0.0 0.0 -0.0 0.0 -0.0 17.5411 15.2671 3.2269 -11.5453 -0.300576 -1.74332 25.8524 -27.169 3.66181 -15.6829 0.0 0.0 0.0 0.0 0.0 
581.563 721.601 -1305.62 178.386 -42.2342 177.492 -1.73132 0.0394544 1.86475 -1.72939 -0.0792636 1.86348 -1.73039 -0.523634 1.79018 -1.73479 -0.234388 1.85039 0.994775 12.0295 -0.546681 1.40733 21.7673 0.464419 -0.0 0.0 -0.0 -2.67205 14.6246 -2.59408 10.9766 -24.8451 73.0923 2.81714 -54.3654 1.44695 -7.23123 -0.310197 0.870219 2.8295 -8.9808 15.4703 -0.0 0.0 -0.0 9.99094 19.523 -19.4168 -15.4172 25.0628 -58.5989 0.794539 21.4841 -0.150736 8.25105 -0.216804 1.03078 0.462215 -13.4318 -8.44092 0.0 0.0 0.0 -6.40635 8.91 9.76464 -6.325 0.208267 0.947869 42.0415 22.9832 -5.29465 -25.3604 0.0 0.0 -0.0 0.0 -0.0 23.9418 16.426 -0.22513 -19.1584 -0.304703 -2.91055 20.8718 -26.3218 3.00611 -16.8142 0.0 0.0 0.0 0.0 0.0 
595.025 722.376 -1307.07 177.982 -42.6114 177.036 -2.07995 0.0974747 1.75489 -2.07824 -0.0143735 1.75754 -2.07706 -0.445493 1.70022 -2.08105 -0.171428 1.74922 0.985164 12.0217 -0.40183 1.38922 21.6354 0.624629 -0.0 0.0 -0.0 -2.49768 14.9703 -2.24909 12.5801 -26.4525 73.4302 3.19774 -57.7236 1.76279 -6.4746 -0.272615 0.781058 2.72096 -11.0683 13.7738 -0.0 0.0 -0.0 9.77443 21.699 -18.7663 -16.1664 23.0273 -59.1947 0.747301 20.3141 -0.133884 11.2592 -0.258618 1.41271 0.482698 -14.4963 -8.97254 0.0 0.0 0.0 -8.65531 9.78073 11.137 -4.68913 0.164465 0.700648 41.1698 22.8811 -5.21223 -26.3683 0.0 0.0 -0.0 0.0 -0.0 25.82 15.5745 0.0309071 -20.5826 -0.288258 -3.12845 18.5284 -24.9559 2.67287 -16.5779 0.0 0.0 0.0 0.0 0.0 
608.326 723.126 -1300.12 177.659 -42.9263 177.796 -2.38476 -0.0375153 1.54085 -2.38345 -0.135476 1.53534 -2.38591 -0.516176 1.45232 -2.38874 -0.280359 1.5156 0.477661 11.4858 -0.290903 0.820834 20.6637 0.781706 -0.0 0.0 -0.0 -1.80604 18.2499 -0.604043 13.0624 -25.8761 72.065 3.93706 -62.8363 2.40549 -5.4511 -0.223661 0.659684 2.92486 -17.2539 12.2718 -0.0 0.0 -0.0 9.5842 22.0852 -18.3091 -17.0289 20.0683 -59.6238 0.735841 20.0275 -0.129933 13.2549 -0.275272 1.66706 0.101804 -16.1216 -7.21035 0.0 0.0 0.0 -10.4146 10.2414 10.6982 -3.59077 0.131099 0.535387 42.5318 22.7647 -5.33195 -26.7575 0.0 0.0 -0.0 0.0 -0.0 27.2162 16.0305 -1.27312 -27.0002 -0.147227 -4.10267 18.8247 -21.8016 2.66963 -15.2934 0.0 0.0 0.0 0.0 0.0 
